0
SECTION
2
HEADER
9
$INSUNITS
70
4
9
$ACADVER
1
AC1014
9
$HANDSEED
5
FFFF
0
ENDSEC
0
SECTION
2
TABLES
0
TABLE
2
VPORT
5
8
100
AcDbSymbolTable
0
ENDTAB
0
TABLE
2
LTYPE
5
5
100
AcDbSymbolTable
0
LTYPE
5
14
100
AcDbSymbolTableRecord
100
AcDbLinetypeTableRecord
2
BYBLOCK
70
0
0
LTYPE
5
15
100
AcDbSymbolTableRecord
100
AcDbLinetypeTableRecord
2
BYLAYER
70
0
0
ENDTAB
0
TABLE
2
LAYER
5
2
100
AcDbSymbolTable
70
2
0
LAYER
5
50
100
AcDbSymbolTableRecord
100
AcDbLayerTableRecord
2
0
70
0
6
CONTINUOUS
0
ENDTAB
0
TABLE
2
STYLE
5
3
100
AcDbSymbolTable
70
1
0
STYLE
5
11
100
AcDbSymbolTableRecord
100
AcDbTextStyleTableRecord
2
STANDARD
70
0
0
ENDTAB
0
TABLE
2
VIEW
5
6
100
AcDbSymbolTable
70
0
0
ENDTAB
0
TABLE
2
UCS
5
7
100
AcDbSymbolTable
70
0
0
ENDTAB
0
TABLE
2
APPID
5
9
100
AcDbSymbolTable
70
2
0
APPID
5
12
100
AcDbSymbolTableRecord
100
AcDbRegAppTableRecord
2
ACAD
70
0
0
ENDTAB
0
TABLE
2
DIMSTYLE
5
A
100
AcDbSymbolTable
70
1
0
ENDTAB
0
TABLE
2
BLOCK_RECORD
5
1
100
AcDbSymbolTable
70
1
0
BLOCK_RECORD
5
1F
100
AcDbSymbolTableRecord
100
AcDbBlockTableRecord
2
*MODEL_SPACE
0
BLOCK_RECORD
5
1B
100
AcDbSymbolTableRecord
100
AcDbBlockTableRecord
2
*PAPER_SPACE
0
ENDTAB
0
ENDSEC
0
SECTION
2
BLOCKS
0
BLOCK
5
20
100
AcDbEntity
100
AcDbBlockBegin
2
*MODEL_SPACE
0
ENDBLK
5
21
100
AcDbEntity
100
AcDbBlockEnd
0
BLOCK
5
1C
100
AcDbEntity
100
AcDbBlockBegin
2
*PAPER_SPACE
0
ENDBLK
5
1D
100
AcDbEntity
100
AcDbBlockEnd
0
ENDSEC
0
SECTION
2
ENTITIES
0
LWPOLYLINE
5
100
100
AcDbEntity
8
0
100
AcDbPolyline
90
8
70
1
43
0.0
10
-272.88175000000001
20
42.125
42
-0.41421356237307422
10
-273.38175000000001
20
41.625000000000007
10
-279.13175000000001
20
41.625000000000014
42
-0.41421356237312623
10
-279.63175000000001
20
42.125
10
-279.63175000000001
20
55.125
42
-0.4142135623730222
10
-279.13175000000001
20
55.625
10
-273.38175000000001
20
55.625
42
-0.41421356237313145
10
-272.88175000000001
20
55.125
0
LWPOLYLINE
5
101
100
AcDbEntity
8
0
100
AcDbPolyline
90
8
70
1
43
0.0
10
-126.35000000000002
20
22.074999999999999
42
-0.4142135623730846
10
-126.85000000000001
20
21.575000000000003
10
-139.84999999999999
20
21.574999999999992
42
-0.41421356237309503
10
-140.34999999999999
20
22.074999999999999
10
-140.34999999999999
20
35.075000000000003
42
-0.41421356237310542
10
-139.84999999999999
20
35.575000000000003
10
-126.85000000000001
20
35.575000000000003
42
-0.41421356237307161
10
-126.34999999999999
20
35.075000000000003
0
LWPOLYLINE
5
102
100
AcDbEntity
8
0
100
AcDbPolyline
90
8
70
1
43
0.0
10
-64.4375
20
60.174999999999997
42
-0.41421356237310542
10
-64.9375
20
59.675000000000004
10
-77.9375
20
59.675000000000004
42
-0.41421356237309503
10
-78.4375
20
60.174999999999997
10
-78.4375
20
73.174999999999997
42
-0.41421356237309503
10
-77.9375
20
73.674999999999997
10
-64.9375
20
73.674999999999997
42
-0.41421356237309503
10
-64.4375
20
73.174999999999997
0
LWPOLYLINE
5
103
100
AcDbEntity
8
0
100
AcDbPolyline
90
8
70
1
43
0.0
10
-111.27500000000001
20
2.5249999999999941
42
-0.41421356237309437
10
-111.77500000000002
20
3.0249999999999999
10
-111.77500000000002
20
16.024999999999999
42
-0.41421356237310675
10
-111.27500000000001
20
16.525000000000002
10
-98.275000000000006
20
16.525000000000009
42
-0.41421356237309631
10
-97.775000000000006
20
16.024999999999999
10
-97.774999999999977
20
3.0249999999999999
42
-0.41421356237310542
10
-98.275000000000006
20
2.5249999999999999
0
LWPOLYLINE
5
104
100
AcDbEntity
8
0
100
AcDbPolyline
90
8
70
1
43
0.0
10
-27.268750000000004
20
41.125
42
-0.41421356237309503
10
-27.768750000000004
20
40.625
10
-28.768750000000001
20
40.625
42
-0.41421356237309503
10
-29.268749999999997
20
41.125
10
-29.268749999999997
20
54.125000000000007
42
-0.41421356237309503
10
-28.768750000000001
20
54.625
10
-27.768750000000004
20
54.625
42
-0.41421356237309503
10
-27.268750000000004
20
54.125000000000007
0
LWPOLYLINE
5
105
100
AcDbEntity
8
0
100
AcDbPolyline
90
8
70
1
43
0.0
10
-24.887500000000003
20
79.224999999999994
10
-24.887500000000003
20
92.224999999999994
42
0.41421356237310542
10
-25.387500000000003
20
92.725000000000009
10
-26.387499999999999
20
92.725000000000009
42
0.41421356237309243
10
-26.887499999999996
20
92.224999999999994
10
-26.887499999999996
20
79.224999999999994
42
0.41421356237309764
10
-26.387499999999999
20
78.724999999999994
10
-25.387500000000003
20
78.724999999999994
42
0.41421356237309764
0
LWPOLYLINE
5
106
100
AcDbEntity
8
0
100
AcDbPolyline
90
8
70
1
43
0.0
10
-211.28749999999999
20
59.674999999999997
42
-0.41421356237313667
10
-211.78750000000002
20
60.174999999999997
10
-211.78750000000005
20
73.174999999999997
42
-0.41421356237307422
10
-211.28749999999999
20
73.674999999999997
10
-198.28749999999999
20
73.674999999999983
42
-0.41421356237312101
10
-197.78749999999999
20
73.174999999999997
10
-197.78750000000002
20
60.174999999999997
42
-0.4142135623730222
10
-198.28749999999999
20
59.675000000000004
0
LWPOLYLINE
5
107
100
AcDbEntity
8
0
100
AcDbPolyline
90
8
70
1
43
0.0
10
-202.55000000000001
20
22.074999999999999
10
-202.55000000000001
20
35.075000000000003
42
0.41421356237313145
10
-203.05000000000004
20
35.57500000000001
10
-216.05000000000004
20
35.575000000000003
42
0.41421356237304563
10
-216.55000000000004
20
35.075000000000003
10
-216.55000000000004
20
22.074999999999999
42
0.41421356237310281
10
-216.05000000000004
20
21.575000000000003
10
-203.05000000000004
20
21.575000000000003
42
0.41421356237308204
0
LWPOLYLINE
5
108
100
AcDbEntity
8
0
100
AcDbPolyline
90
8
70
1
43
0.0
10
-6.1182500000000006
20
61.174999999999997
42
-0.4142135623730957
10
-6.6182499999999997
20
60.674999999999997
10
-12.36825
20
60.674999999999997
42
-0.41421356237309631
10
-12.868250000000002
20
61.174999999999997
10
-12.868250000000003
20
74.175000000000011
42
-0.41421356237309764
10
-12.36825
20
74.674999999999997
10
-6.6182499999999997
20
74.674999999999997
42
-0.41421356237309631
10
-6.1182499999999997
20
74.175000000000011
0
LWPOLYLINE
5
109
100
AcDbEntity
8
0
100
AcDbPolyline
90
8
70
1
43
0.0
10
-135.875
20
3.0249999999999999
42
-0.41421356237307422
10
-136.375
20
2.5249999999999999
10
-149.375
20
2.5249999999999941
42
-0.41421356237309437
10
-149.875
20
3.0249999999999999
10
-149.875
20
16.024999999999999
42
-0.41421356237310675
10
-149.375
20
16.525000000000002
10
-136.375
20
16.525000000000009
42
-0.41421356237307555
10
-135.875
20
16.024999999999999
0
LWPOLYLINE
5
110
100
AcDbEntity
8
0
100
AcDbPolyline
90
11
70
1
43
0.0
10
-268.11925000000002
20
60.174999999999997
10
-268.11925000000002
20
74.175000000000011
42
0.41421356237313667
10
-268.61925000000002
20
74.674999999999997
10
-274.36925000000002
20
74.674999999999997
42
0.4142135623730222
10
-274.86925000000002
20
74.175000000000011
10
-274.86925000000002
20
73.674999999999997
10
-282.72500000000002
20
73.674999999999997
42
0.41421356237307422
10
-283.22500000000002
20
73.174999999999997
10
-283.22500000000002
20
60.174999999999997
42
0.41421356237313667
10
-282.72500000000002
20
59.674999999999997
10
-268.61925000000002
20
59.675000000000004
42
0.41421356237309503
0
LWPOLYLINE
5
111
100
AcDbEntity
8
0
100
AcDbPolyline
90
8
70
1
43
0.0
10
-140.63749999999999
20
60.174999999999997
42
-0.41421356237310542
10
-141.13749999999999
20
59.675000000000004
10
-154.13749999999999
20
59.674999999999983
42
-0.41421356237310025
10
-154.63750000000002
20
60.174999999999997
10
-154.63750000000002
20
73.174999999999997
42
-0.41421356237308982
10
-154.13749999999999
20
73.674999999999997
10
-141.13749999999999
20
73.675000000000011
42
-0.41421356237309503
10
-140.63749999999999
20
73.174999999999997
0
LWPOLYLINE
5
112
100
AcDbEntity
8
0
100
AcDbPolyline
90
8
70
1
43
0.0
10
-178.73749999999998
20
60.174999999999997
42
-0.41421356237307422
10
-179.23750000000001
20
59.675000000000004
10
-192.23750000000001
20
59.675000000000011
42
-0.41421356237312623
10
-192.73750000000004
20
60.174999999999997
10
-192.73750000000001
20
73.174999999999997
42
-0.4142135623730222
10
-192.23750000000001
20
73.674999999999997
10
-179.23750000000001
20
73.674999999999997
42
-0.41421356237313145
10
-178.73750000000001
20
73.174999999999997
0
LWPOLYLINE
5
113
100
AcDbEntity
8
0
100
AcDbPolyline
90
8
70
1
43
0.0
10
-207.31250000000003
20
41.125
42
-0.4142135623730222
10
-207.8125
20
40.625
10
-220.8125
20
40.625
42
-0.41421356237313145
10
-221.3125
20
41.125
10
-221.31250000000006
20
54.125000000000007
42
-0.41421356237307422
10
-220.8125
20
54.625
10
-207.8125
20
54.624999999999986
42
-0.41421356237312101
10
-207.3125
20
54.125000000000007
0
LWPOLYLINE
5
114
100
AcDbEntity
8
0
100
AcDbPolyline
90
8
70
1
43
0.0
10
-83.487499999999983
20
60.174999999999997
42
-0.41421356237310542
10
-83.987499999999997
20
59.675000000000004
10
-96.987500000000011
20
59.674999999999983
42
-0.41421356237310025
10
-97.487500000000011
20
60.174999999999997
10
-97.487500000000011
20
73.174999999999997
42
-0.41421356237308982
10
-96.987500000000011
20
73.674999999999997
10
-83.987499999999997
20
73.675000000000011
42
-0.41421356237309503
10
-83.487499999999983
20
73.174999999999997
0
LWPOLYLINE
5
115
100
AcDbEntity
8
0
100
AcDbPolyline
90
8
70
1
43
0.0
10
-14.431249999999999
20
60.174999999999997
42
-0.41421356237309764
10
-14.93125
20
59.675000000000004
10
-27.931249999999999
20
59.675000000000011
42
-0.41421356237309764
10
-28.431249999999999
20
60.174999999999997
10
-28.431249999999999
20
73.174999999999997
42
-0.41421356237309503
10
-27.931249999999999
20
73.674999999999997
10
-14.93125
20
73.674999999999997
42
-0.4142135623730937
10
-14.43125
20
73.174999999999997
0
LWPOLYLINE
5
116
100
AcDbEntity
8
0
100
AcDbPolyline
90
8
70
1
43
0.0
10
-163.66250000000002
20
40.625000000000014
42
-0.41421356237312101
10
-164.16250000000002
20
41.125
10
-164.16249999999997
20
54.125000000000007
42
-0.4142135623730222
10
-163.66250000000002
20
54.625
10
-150.66249999999999
20
54.625000000000014
42
-0.41421356237309503
10
-150.16249999999999
20
54.125000000000007
10
-150.16249999999999
20
41.125
42
-0.41421356237308982
10
-150.66249999999999
20
40.625
0
LWPOLYLINE
5
117
100
AcDbEntity
8
0
100
AcDbPolyline
90
8
70
1
43
0.0
10
-102.53749999999999
20
60.174999999999997
42
-0.41421356237310542
10
-103.03750000000001
20
59.675000000000004
10
-116.03749999999998
20
59.674999999999983
42
-0.41421356237307944
10
-116.53750000000001
20
60.174999999999997
10
-116.53749999999999
20
73.174999999999997
42
-0.41421356237310025
10
-116.03749999999999
20
73.674999999999997
10
-103.03750000000001
20
73.675000000000011
42
-0.41421356237309503
10
-102.53749999999999
20
73.174999999999997
0
LWPOLYLINE
5
118
100
AcDbEntity
8
0
100
AcDbPolyline
90
8
70
1
43
0.0
10
-20.787500000000001
20
21.575000000000003
42
-0.41421356237309503
10
-21.287500000000001
20
22.074999999999999
10
-21.287500000000001
20
35.075000000000003
42
-0.41421356237309503
10
-20.787500000000001
20
35.575000000000003
10
-7.7875000000000005
20
35.575000000000003
42
-0.41421356237309503
10
-7.2874999999999996
20
35.075000000000003
10
-7.2874999999999996
20
22.075000000000003
42
-0.41421356237309631
10
-7.7875000000000005
20
21.575000000000003
0
LWPOLYLINE
5
119
100
AcDbEntity
8
0
100
AcDbPolyline
90
8
70
1
43
0.0
10
-159.6875
20
60.174999999999997
42
-0.41421356237309503
10
-160.1875
20
59.675000000000004
10
-173.1875
20
59.675000000000011
42
-0.41421356237312623
10
-173.68750000000003
20
60.174999999999997
10
-173.6875
20
73.174999999999997
42
-0.4142135623730222
10
-173.1875
20
73.674999999999997
10
-160.1875
20
73.675000000000011
42
-0.41421356237309503
10
-159.6875
20
73.174999999999997
0
LWPOLYLINE
5
120
100
AcDbEntity
8
0
100
AcDbPolyline
90
8
70
1
43
0.0
10
-182.71250000000003
20
40.625000000000014
42
-0.41421356237312101
10
-183.21250000000003
20
41.125
10
-183.21249999999998
20
54.125000000000007
42
-0.4142135623730222
10
-182.71250000000003
20
54.625
10
-169.71250000000001
20
54.625
42
-0.41421356237313145
10
-169.21250000000001
20
54.125000000000007
10
-169.21249999999998
20
41.125
42
-0.41421356237307422
10
-169.71250000000001
20
40.625
0
LWPOLYLINE
5
121
100
AcDbEntity
8
0
100
AcDbPolyline
90
8
70
1
43
0.0
10
-183.5
20
22.074999999999999
42
-0.41421356237308204
10
-184.00000000000003
20
21.575000000000003
10
-197.00000000000003
20
21.574999999999982
42
-0.41421356237310281
10
-197.50000000000003
20
22.074999999999999
10
-197.50000000000003
20
35.075000000000003
42
-0.41421356237304563
10
-197.00000000000003
20
35.575000000000003
10
-184.00000000000003
20
35.575000000000003
42
-0.41421356237313145
10
-183.5
20
35.075000000000003
0
LWPOLYLINE
5
122
100
AcDbEntity
8
0
100
AcDbPolyline
90
8
70
1
43
0.0
10
-193.02499999999998
20
3.0249999999999999
42
-0.41421356237307749
10
-193.52500000000003
20
2.5249999999999999
10
-206.52500000000003
20
2.5249999999999817
42
-0.41421356237310153
10
-207.02500000000003
20
3.0249999999999999
10
-207.02500000000003
20
16.024999999999999
42
-0.41421356237304691
10
-206.52500000000003
20
16.525000000000002
10
-193.52500000000003
20
16.525000000000002
42
-0.41421356237313406
10
-193.02500000000003
20
16.024999999999999
0
LWPOLYLINE
5
123
100
AcDbEntity
8
0
100
AcDbPolyline
90
14
70
1
43
0.0
10
-243.03124999999997
20
60.174999999999997
42
-0.41421356237307422
10
-243.53125000000003
20
59.675000000000004
10
-266.05624999999998
20
59.674999999999997
42
-0.41421356237313667
10
-266.55624999999998
20
60.174999999999997
10
-266.55625000000003
20
73.174999999999997
42
-0.41421356237307422
10
-266.05624999999998
20
73.674999999999997
10
-250.99324999999999
20
73.674999999999997
10
-250.99325000000005
20
74.175000000000011
42
-0.41421356237307422
10
-250.49324999999999
20
74.674999999999997
10
-244.74324999999999
20
74.674999999999997
42
-0.41421356237312623
10
-244.24324999999999
20
74.175000000000011
10
-244.24324999999999
20
73.674999999999997
10
-243.53125000000003
20
73.674999999999997
42
-0.41421356237313145
10
-243.03125
20
73.174999999999997
0
LWPOLYLINE
5
124
100
AcDbEntity
8
0
100
AcDbPolyline
90
8
70
1
43
0.0
10
-254.15000000000003
20
78.724999999999994
42
-0.41421356237313667
10
-254.65000000000003
20
79.224999999999994
10
-254.65000000000003
20
92.224999999999994
42
-0.41421356237313667
10
-254.15000000000003
20
92.725000000000009
10
-241.15000000000003
20
92.725000000000023
42
-0.41421356237310542
10
-240.65000000000001
20
92.224999999999994
10
-240.65000000000003
20
79.224999999999994
42
-0.4142135623730222
10
-241.15000000000003
20
78.724999999999994
0
LWPOLYLINE
5
125
100
AcDbEntity
8
0
100
AcDbPolyline
90
8
70
1
43
0.0
10
-283.5625
20
78.725000000000009
42
-0.41421356237312623
10
-284.06250000000006
20
79.224999999999994
10
-284.0625
20
92.224999999999994
42
-0.41421356237310542
10
-283.5625
20
92.725000000000009
10
-282.5625
20
92.725000000000023
42
-0.41421356237310542
10
-282.0625
20
92.224999999999994
10
-282.06250000000006
20
79.224999999999994
42
-0.4142135623730222
10
-282.5625
20
78.724999999999994
0
LWPOLYLINE
5
126
100
AcDbEntity
8
0
100
AcDbPolyline
90
8
70
1
43
0.0
10
-31.099999999999998
20
79.224999999999994
42
-0.41421356237309764
10
-31.600000000000001
20
78.724999999999994
10
-44.600000000000001
20
78.724999999999994
42
-0.41421356237309503
10
-45.099999999999994
20
79.224999999999994
10
-45.100000000000009
20
92.224999999999994
42
-0.41421356237309503
10
-44.600000000000001
20
92.725000000000009
10
-31.600000000000001
20
92.725000000000009
42
-0.41421356237310542
10
-31.100000000000001
20
92.224999999999994
0
LWPOLYLINE
5
127
100
AcDbEntity
8
0
100
AcDbPolyline
90
8
70
1
43
0.0
10
-3.1875000000000009
20
78.724999999999994
42
-0.41421356237309664
10
-3.6875000000000009
20
79.224999999999994
10
-3.6875000000000071
20
92.224999999999994
42
-0.41421356237309437
10
-3.1875000000000009
20
92.725000000000009
10
-2.1875000000000004
20
92.725000000000023
42
-0.41421356237310542
10
-1.6875000000000007
20
92.224999999999994
10
-1.6874999999999993
20
79.224999999999994
42
-0.41421356237309687
10
-2.1875000000000004
20
78.724999999999994
0
LWPOLYLINE
5
128
100
AcDbEntity
8
0
100
AcDbPolyline
90
8
70
1
43
0.0
10
-54.912500000000009
20
79.224999999999994
42
-0.41421356237309503
10
-55.412500000000009
20
78.724999999999994
10
-68.412499999999994
20
78.724999999999994
42
-0.41421356237309503
10
-68.912499999999994
20
79.224999999999994
10
-68.912500000000009
20
92.224999999999994
42
-0.41421356237309503
10
-68.412499999999994
20
92.725000000000009
10
-55.412500000000009
20
92.725000000000009
42
-0.41421356237308982
10
-54.912500000000009
20
92.224999999999994
0
LWPOLYLINE
5
129
100
AcDbEntity
8
0
100
AcDbPolyline
90
8
70
1
43
0.0
10
-264.46249999999998
20
79.224999999999994
42
-0.41421356237307422
10
-264.96249999999998
20
78.724999999999994
10
-277.96249999999998
20
78.725000000000009
42
-0.41421356237312623
10
-278.46250000000003
20
79.224999999999994
10
-278.46249999999998
20
92.224999999999994
42
-0.41421356237310542
10
-277.96249999999998
20
92.725000000000009
10
-264.96249999999998
20
92.725000000000009
42
-0.41421356237313667
10
-264.46249999999998
20
92.224999999999994
0
LWPOLYLINE
5
130
100
AcDbEntity
8
0
100
AcDbPolyline
90
8
70
1
43
0.0
10
-237.43125000000006
20
60.174999999999997
42
-0.4142135623730222
10
-237.93125000000003
20
59.675000000000004
10
-238.93125000000001
20
59.674999999999997
42
-0.41421356237313667
10
-239.43125000000003
20
60.174999999999997
10
-239.43125000000006
20
73.174999999999997
42
-0.41421356237307422
10
-238.93125000000001
20
73.674999999999997
10
-237.93125000000003
20
73.674999999999983
42
-0.41421356237312101
10
-237.43125000000003
20
73.174999999999997
0
LWPOLYLINE
5
131
100
AcDbEntity
8
0
100
AcDbPolyline
90
8
70
1
43
0.0
10
-234.43749999999997
20
79.224999999999994
42
-0.41421356237307422
10
-234.93750000000003
20
78.724999999999994
10
-235.9375
20
78.725000000000009
42
-0.41421356237312623
10
-236.4375
20
79.224999999999994
10
-236.43749999999997
20
92.224999999999994
42
-0.41421356237310542
10
-235.9375
20
92.725000000000009
10
-234.93750000000003
20
92.725000000000009
42
-0.41421356237313667
10
-234.4375
20
92.224999999999994
0
LWPOLYLINE
5
132
100
AcDbEntity
8
0
100
AcDbPolyline
90
20
70
1
43
0.0
10
-258.137
20
16.525000000000002
10
-275.26299999999998
20
16.524999999999999
10
-275.26299999999998
20
17.024999999999999
42
0.41421356237313273
10
-275.76299999999998
20
17.525000000000006
10
-281.51299999999998
20
17.524999999999999
42
0.41421356237304691
10
-282.01299999999998
20
17.024999999999999
10
-282.01299999999998
20
16.524999999999999
10
-282.72500000000002
20
16.525000000000002
42
0.4142135623730781
10
-283.22500000000002
20
16.024999999999999
10
-283.22500000000002
20
3.0249999999999999
42
0.41421356237313273
10
-282.72500000000002
20
2.5249999999999999
10
-250.67500000000001
20
2.5249999999999999
42
0.41421356237304624
10
-250.17500000000001
20
3.0249999999999999
10
-250.17500000000001
20
16.024999999999999
42
0.41421356237312362
10
-250.67500000000001
20
16.525000000000006
10
-251.387
20
16.524999999999999
10
-251.387
20
17.024999999999999
42
0.41421356237313273
10
-251.887
20
17.524999999999999
10
-257.637
20
17.524999999999999
42
0.41421356237304691
10
-258.137
20
17.024999999999999
0
LWPOLYLINE
5
133
100
AcDbEntity
8
0
100
AcDbPolyline
90
8
70
1
43
0.0
10
-24.887500000000003
20
22.074999999999999
42
-0.41421356237309503
10
-25.387500000000003
20
21.575000000000003
10
-26.387499999999999
20
21.575000000000003
42
-0.41421356237309503
10
-26.887499999999996
20
22.074999999999999
10
-26.887499999999996
20
35.075000000000003
42
-0.41421356237309503
10
-26.387499999999999
20
35.575000000000003
10
-25.387500000000003
20
35.575000000000003
42
-0.41421356237309503
10
-24.887500000000003
20
35.075000000000003
0
LWPOLYLINE
5
134
100
AcDbEntity
8
0
100
AcDbPolyline
90
8
70
1
43
0.0
10
-258.86250000000007
20
79.224999999999994
42
-0.4142135623730222
10
-259.36250000000001
20
78.724999999999994
10
-260.36250000000001
20
78.725000000000009
42
-0.41421356237312623
10
-260.86250000000001
20
79.224999999999994
10
-260.86250000000001
20
92.224999999999994
42
-0.41421356237310542
10
-260.36250000000001
20
92.725000000000009
10
-259.36250000000001
20
92.725000000000023
42
-0.41421356237310542
10
-258.86250000000001
20
92.224999999999994
0
LWPOLYLINE
5
135
100
AcDbEntity
8
0
100
AcDbPolyline
90
8
70
1
43
0.0
10
-72.512500000000003
20
79.224999999999994
42
-0.41421356237309503
10
-73.012500000000003
20
78.724999999999994
10
-74.012500000000017
20
78.724999999999994
42
-0.41421356237310542
10
-74.512500000000003
20
79.224999999999994
10
-74.512500000000031
20
92.224999999999994
42
-0.41421356237310025
10
-74.012500000000017
20
92.725000000000009
10
-73.012500000000003
20
92.725000000000009
42
-0.41421356237308982
10
-72.512500000000003
20
92.224999999999994
0
LWPOLYLINE
5
136
100
AcDbEntity
8
0
100
AcDbPolyline
90
8
70
1
43
0.0
10
-73.962500000000006
20
41.125
42
-0.41421356237309503
10
-74.462500000000006
20
40.625
10
-87.46250000000002
20
40.624999999999993
42
-0.41421356237307422
10
-87.96250000000002
20
41.125
10
-87.962500000000006
20
54.125000000000007
42
-0.41421356237310025
10
-87.46250000000002
20
54.625
10
-74.462500000000006
20
54.625
42
-0.41421356237309503
10
-73.962500000000006
20
54.125000000000007
0
LWPOLYLINE
5
137
100
AcDbEntity
8
0
100
AcDbPolyline
90
8
70
1
43
0.0
10
-45.387500000000003
20
60.174999999999997
42
-0.41421356237309503
10
-45.887500000000003
20
59.675000000000004
10
-58.88750000000001
20
59.675000000000004
42
-0.41421356237309503
10
-59.387500000000003
20
60.174999999999997
10
-59.387500000000003
20
73.174999999999997
42
-0.41421356237309503
10
-58.88750000000001
20
73.674999999999997
10
-45.887500000000003
20
73.674999999999997
42
-0.41421356237309503
10
-45.387500000000003
20
73.174999999999997
0
LWPOLYLINE
5
138
100
AcDbEntity
8
0
100
AcDbPolyline
90
8
70
1
43
0.0
10
-197.15000000000003
20
91.724999999999994
42
-0.4142135623730846
10
-196.65000000000003
20
91.225000000000009
10
-196.64999999999998
20
78.224999999999994
42
-0.41421356237312623
10
-197.15000000000003
20
77.724999999999994
10
-202.90000000000003
20
77.724999999999994
42
-0.41421356237313667
10
-203.40000000000003
20
78.224999999999994
10
-203.40000000000003
20
91.225000000000009
42
-0.41421356237307422
10
-202.90000000000003
20
91.724999999999994
0
LWPOLYLINE
5
139
100
AcDbEntity
8
0
100
AcDbPolyline
90
8
70
1
43
0.0
10
-135.87500000000003
20
79.224999999999994
10
-135.875
20
92.224999999999994
42
0.41421356237307422
10
-136.375
20
92.725000000000009
10
-149.375
20
92.725000000000009
42
0.41421356237309503
10
-149.875
20
92.224999999999994
10
-149.875
20
79.224999999999994
42
0.41421356237310025
10
-149.375
20
78.724999999999994
10
-136.375
20
78.724999999999994
42
0.41421356237310542
0
LWPOLYLINE
5
140
100
AcDbEntity
8
0
100
AcDbPolyline
90
8
70
1
43
0.0
10
-249.00575000000003
20
42.125
42
-0.4142135623730222
10
-249.50575000000001
20
41.625000000000007
10
-255.25575000000003
20
41.625000000000014
42
-0.41421356237312623
10
-255.75575000000003
20
42.125
10
-255.75575000000001
20
55.125
42
-0.4142135623730222
10
-255.25575000000003
20
55.625
10
-249.50575000000001
20
55.624999999999986
42
-0.41421356237312101
10
-249.00575000000001
20
55.125
0
LWPOLYLINE
5
141
100
AcDbEntity
8
0
100
AcDbPolyline
90
8
70
1
43
0.0
10
-78.724999999999994
20
3.0249999999999999
42
-0.41421356237309664
10
-79.224999999999994
20
2.5249999999999999
10
-92.224999999999994
20
2.5249999999999941
42
-0.41421356237309437
10
-92.725000000000009
20
3.0249999999999999
10
-92.725000000000009
20
16.024999999999999
42
-0.41421356237310675
10
-92.224999999999994
20
16.525000000000002
10
-79.224999999999994
20
16.525000000000002
42
-0.41421356237309764
10
-78.724999999999994
20
16.024999999999999
0
LWPOLYLINE
5
142
100
AcDbEntity
8
0
100
AcDbPolyline
90
8
70
1
43
0.0
10
-116.82499999999999
20
3.0249999999999999
42
-0.41421356237310542
10
-117.32500000000002
20
2.5249999999999999
10
-130.32499999999999
20
2.5249999999999941
42
-0.41421356237309437
10
-130.82499999999999
20
3.0249999999999999
10
-130.82499999999999
20
16.024999999999999
42
-0.41421356237310675
10
-130.32499999999999
20
16.525000000000002
10
-117.32500000000002
20
16.525000000000009
42
-0.41421356237309631
10
-116.82500000000002
20
16.024999999999999
0
LWPOLYLINE
5
143
100
AcDbEntity
8
0
100
AcDbPolyline
90
8
70
1
43
0.0
10
-50.150000000000006
20
22.074999999999999
42
-0.41421356237309503
10
-50.650000000000006
20
21.575000000000003
10
-63.650000000000006
20
21.574999999999996
42
-0.41421356237309764
10
-64.150000000000006
20
22.074999999999999
10
-64.149999999999991
20
35.075000000000003
42
-0.41421356237309764
10
-63.650000000000006
20
35.575000000000003
10
-50.650000000000006
20
35.575000000000003
42
-0.41421356237309503
10
-50.150000000000006
20
35.075000000000003
0
LWPOLYLINE
5
144
100
AcDbEntity
8
0
100
AcDbPolyline
90
8
70
1
43
0.0
10
-1.6875000000000016
20
22.074999999999999
42
-0.41421356237309553
10
-2.1875000000000004
20
21.575000000000003
10
-3.1875000000000009
20
21.575000000000003
42
-0.41421356237309537
10
-3.6875000000000009
20
22.074999999999999
10
-3.6875
20
35.075000000000003
42
-0.4142135623730957
10
-3.1875000000000009
20
35.575000000000003
10
-2.1875000000000004
20
35.575000000000003
42
-0.41421356237309537
10
-1.6875000000000007
20
35.075000000000003
0
LWPOLYLINE
5
145
100
AcDbEntity
8
0
100
AcDbPolyline
90
8
70
1
43
0.0
10
-226.36250000000004
20
41.125
42
-0.4142135623730222
10
-226.86250000000001
20
40.625
10
-239.86250000000001
20
40.625
42
-0.41421356237313145
10
-240.36250000000001
20
41.125
10
-240.36250000000007
20
54.125000000000007
42
-0.41421356237307422
10
-239.86250000000001
20
54.625
10
-226.86250000000001
20
54.624999999999986
42
-0.41421356237312101
10
-226.36250000000001
20
54.125000000000007
0
LWPOLYLINE
5
146
100
AcDbEntity
8
0
100
AcDbPolyline
90
8
70
1
43
0.0
10
-145.40000000000003
20
22.074999999999999
42
-0.4142135623730846
10
-145.90000000000001
20
21.575000000000003
10
-158.90000000000001
20
21.574999999999992
42
-0.41421356237309503
10
-159.40000000000001
20
22.074999999999999
10
-159.40000000000001
20
35.075000000000003
42
-0.41421356237310542
10
-158.90000000000001
20
35.575000000000003
10
-145.90000000000001
20
35.575000000000003
42
-0.41421356237307161
10
-145.40000000000001
20
35.075000000000003
0
LWPOLYLINE
5
147
100
AcDbEntity
8
0
100
AcDbPolyline
90
8
70
1
43
0.0
10
-54.912500000000009
20
41.125
42
-0.41421356237309503
10
-55.412500000000009
20
40.625
10
-68.412499999999994
20
40.625
42
-0.41421356237309503
10
-68.912499999999994
20
41.125
10
-68.912499999999994
20
54.125000000000007
42
-0.41421356237309503
10
-68.412499999999994
20
54.625
10
-55.412500000000009
20
54.625
42
-0.41421356237309503
10
-54.912500000000009
20
54.125000000000007
0
LWPOLYLINE
5
148
100
AcDbEntity
8
0
100
AcDbPolyline
90
8
70
1
43
0.0
10
-282.0625
20
22.074999999999999
42
-0.41421356237305079
10
-282.5625
20
21.575000000000003
10
-283.5625
20
21.574999999999982
42
-0.41421356237310281
10
-284.06250000000006
20
22.074999999999999
10
-284.06250000000006
20
35.075000000000003
42
-0.41421356237304563
10
-283.5625
20
35.575000000000003
10
-282.5625
20
35.575000000000017
42
-0.41421356237310025
10
-282.0625
20
35.075000000000003
0
LWPOLYLINE
5
149
100
AcDbEntity
8
0
100
AcDbPolyline
90
8
70
1
43
0.0
10
-212.73750000000004
20
78.724999999999994
42
-0.41421356237313667
10
-213.23750000000004
20
79.224999999999994
10
-213.23750000000004
20
92.224999999999994
42
-0.41421356237313667
10
-212.73750000000004
20
92.725000000000009
10
-211.73750000000001
20
92.725000000000009
42
-0.41421356237313667
10
-211.23750000000001
20
92.224999999999994
10
-211.23749999999998
20
79.224999999999994
42
-0.41421356237307422
10
-211.73750000000001
20
78.724999999999994
0
LWPOLYLINE
5
150
100
AcDbEntity
8
0
100
AcDbPolyline
90
8
70
1
43
0.0
10
-107.30000000000001
20
22.074999999999999
42
-0.41421356237310802
10
-107.80000000000001
20
21.575000000000003
10
-120.8
20
21.574999999999992
42
-0.41421356237307422
10
-121.30000000000001
20
22.074999999999999
10
-121.29999999999998
20
35.075000000000003
42
-0.41421356237310025
10
-120.8
20
35.575000000000003
10
-107.80000000000001
20
35.575000000000003
42
-0.41421356237309243
10
-107.30000000000001
20
35.075000000000003
0
LWPOLYLINE
5
151
100
AcDbEntity
8
0
100
AcDbPolyline
90
8
70
1
43
0.0
10
-7.2874999999999979
20
79.224999999999994
42
-0.41421356237309764
10
-7.7875000000000005
20
78.724999999999994
10
-20.787500000000001
20
78.725000000000009
42
-0.41421356237309764
10
-21.287500000000001
20
79.224999999999994
10
-21.287500000000005
20
92.224999999999994
42
-0.41421356237309243
10
-20.787500000000001
20
92.725000000000009
10
-7.7875000000000005
20
92.725000000000023
42
-0.41421356237310542
10
-7.2874999999999996
20
92.224999999999994
0
LWPOLYLINE
5
152
100
AcDbEntity
8
0
100
AcDbPolyline
90
8
70
1
43
0.0
10
-154.92500000000001
20
3.0249999999999999
42
-0.41421356237307422
10
-155.42500000000001
20
2.5249999999999999
10
-168.42500000000001
20
2.5249999999999817
42
-0.41421356237310153
10
-168.92500000000001
20
3.0249999999999999
10
-168.92500000000001
20
16.024999999999999
42
-0.41421356237304691
10
-168.42500000000001
20
16.525000000000002
10
-155.42500000000001
20
16.525000000000009
42
-0.41421356237307555
10
-154.92500000000001
20
16.024999999999999
0
LWPOLYLINE
5
153
100
AcDbEntity
8
0
100
AcDbPolyline
90
8
70
1
43
0.0
10
-82.849999999999994
20
91.725000000000009
42
-0.41421356237307422
10
-82.349999999999994
20
91.225000000000009
10
-82.349999999999994
20
78.224999999999994
42
-0.41421356237310025
10
-82.849999999999994
20
77.724999999999994
10
-88.599999999999994
20
77.72499999999998
42
-0.41421356237310025
10
-89.099999999999994
20
78.224999999999994
10
-89.099999999999994
20
91.225000000000009
42
-0.41421356237312623
10
-88.599999999999994
20
91.724999999999994
0
LWPOLYLINE
5
154
100
AcDbEntity
8
0
100
AcDbPolyline
90
8
70
1
43
0.0
10
-173.97499999999997
20
3.0249999999999999
42
-0.41421356237307749
10
-174.47500000000002
20
2.5249999999999999
10
-187.47499999999999
20
2.5249999999999995
42
-0.41421356237313273
10
-187.97499999999999
20
3.0249999999999999
10
-187.97500000000002
20
16.024999999999999
42
-0.4142135623730781
10
-187.47499999999999
20
16.525000000000002
10
-174.47500000000002
20
16.525000000000002
42
-0.41421356237313406
10
-173.97500000000002
20
16.024999999999999
0
LWPOLYLINE
5
155
100
AcDbEntity
8
0
100
AcDbPolyline
90
8
70
1
43
0.0
10
-106.51250000000002
20
40.624999999999993
42
-0.41421356237309503
10
-107.01250000000002
20
41.125
10
-107.01250000000002
20
54.125000000000007
42
-0.41421356237308982
10
-106.51250000000002
20
54.625
10
-93.512500000000003
20
54.625000000000014
42
-0.41421356237309503
10
-93.012499999999989
20
54.125000000000007
10
-93.012499999999989
20
41.125
42
-0.41421356237308982
10
-93.512500000000003
20
40.625
0
LWPOLYLINE
5
156
100
AcDbEntity
8
0
100
AcDbPolyline
90
8
70
1
43
0.0
10
-131.11250000000001
20
41.125
42
-0.41421356237308982
10
-131.61250000000001
20
40.625
10
-144.61250000000001
20
40.624999999999993
42
-0.41421356237307422
10
-145.11250000000001
20
41.125
10
-145.11250000000001
20
54.125000000000007
42
-0.41421356237310025
10
-144.61250000000001
20
54.625
10
-131.61250000000001
20
54.625000000000014
42
-0.41421356237309503
10
-131.11250000000001
20
54.125000000000007
0
LWPOLYLINE
5
157
100
AcDbEntity
8
0
100
AcDbPolyline
90
8
70
1
43
0.0
10
-216.83750000000003
20
79.224999999999994
42
-0.4142135623730222
10
-217.33750000000001
20
78.724999999999994
10
-230.33750000000001
20
78.724999999999994
42
-0.41421356237313667
10
-230.83750000000003
20
79.224999999999994
10
-230.83750000000003
20
92.224999999999994
42
-0.41421356237313667
10
-230.33750000000001
20
92.725000000000009
10
-217.33750000000001
20
92.725000000000023
42
-0.41421356237310542
10
-216.83750000000001
20
92.224999999999994
0
LWPOLYLINE
5
158
100
AcDbEntity
8
0
100
AcDbPolyline
90
8
70
1
43
0.0
10
-4.9062500000000053
20
41.125
42
-0.41421356237309309
10
-5.4062499999999991
20
40.625
10
-23.168749999999999
20
40.625
42
-0.41421356237309503
10
-23.668749999999999
20
41.125
10
-23.668749999999999
20
54.125000000000007
42
-0.41421356237309503
10
-23.168749999999999
20
54.625
10
-5.4062499999999991
20
54.625
42
-0.4142135623730937
10
-4.90625
20
54.125000000000007
0
LWPOLYLINE
5
159
100
AcDbEntity
8
0
100
AcDbPolyline
90
8
70
1
43
0.0
10
-212.07499999999999
20
3.0249999999999999
42
-0.41421356237304624
10
-212.57499999999999
20
2.5249999999999999
10
-225.57500000000002
20
2.5249999999999995
42
-0.41421356237313273
10
-226.07500000000002
20
3.0249999999999999
10
-226.07500000000005
20
16.024999999999999
42
-0.4142135623730781
10
-225.57500000000002
20
16.525000000000002
10
-212.57499999999999
20
16.524999999999984
42
-0.41421356237312362
10
-212.07499999999999
20
16.024999999999999
0
LWPOLYLINE
5
160
100
AcDbEntity
8
0
100
AcDbPolyline
90
8
70
1
43
0.0
10
-35.862500000000004
20
41.125
10
-35.862500000000004
20
54.125000000000007
42
0.41421356237309503
10
-36.362499999999997
20
54.625
10
-49.362500000000004
20
54.625
42
0.41421356237309503
10
-49.862499999999997
20
54.125000000000007
10
-49.862499999999997
20
41.125
42
0.41421356237309503
10
-49.362500000000004
20
40.625
10
-36.362499999999997
20
40.625
42
0.41421356237309503
0
LWPOLYLINE
5
161
100
AcDbEntity
8
0
100
AcDbPolyline
90
8
70
1
43
0.0
10
-2.5249999999999999
20
3.0249999999999999
42
-0.41421356237309437
10
-3.0249999999999999
20
2.5249999999999999
10
-16.024999999999999
20
2.5249999999999986
42
-0.41421356237309309
10
-16.525000000000002
20
3.0249999999999999
10
-16.525000000000002
20
16.024999999999999
42
-0.41421356237309243
10
-16.024999999999999
20
16.525000000000002
10
-3.0249999999999999
20
16.525000000000002
42
-0.4142135623730947
10
-2.5249999999999999
20
16.024999999999999
0
LWPOLYLINE
5
162
100
AcDbEntity
8
0
100
AcDbPolyline
90
8
70
1
43
0.0
10
-257.31874999999997
20
41.125
42
-0.41421356237307422
10
-257.81875000000002
20
40.625
10
-270.81875000000002
20
40.625000000000014
42
-0.41421356237312101
10
-271.31875000000002
20
41.125
10
-271.31875000000002
20
54.125000000000007
42
-0.4142135623730222
10
-270.81875000000002
20
54.625
10
-257.81875000000002
20
54.625
42
-0.41421356237313145
10
-257.31875000000002
20
54.125000000000007
0
LWPOLYLINE
5
163
100
AcDbEntity
8
0
100
AcDbPolyline
90
8
70
1
43
0.0
10
-177.94999999999999
20
21.574999999999996
42
-0.41421356237313406
10
-178.44999999999999
20
22.074999999999999
10
-178.45000000000002
20
35.075000000000003
42
-0.41421356237307683
10
-177.94999999999999
20
35.575000000000003
10
-164.95000000000002
20
35.575000000000003
42
-0.41421356237313145
10
-164.44999999999999
20
35.075000000000003
10
-164.44999999999999
20
22.074999999999999
42
-0.41421356237308204
10
-164.95000000000002
20
21.575000000000003
0
LWPOLYLINE
5
164
100
AcDbEntity
8
0
100
AcDbPolyline
90
8
70
1
43
0.0
10
-277.96249999999998
20
21.574999999999982
42
-0.41421356237310281
10
-278.46250000000003
20
22.074999999999999
10
-278.46250000000003
20
35.075000000000003
42
-0.41421356237304563
10
-277.96249999999998
20
35.575000000000003
10
-264.96249999999998
20
35.575000000000003
42
-0.41421356237313145
10
-264.46249999999998
20
35.075000000000003
10
-264.46249999999998
20
22.074999999999999
42
-0.41421356237308204
10
-264.96249999999998
20
21.575000000000003
0
LWPOLYLINE
5
165
100
AcDbEntity
8
0
100
AcDbPolyline
90
8
70
1
43
0.0
10
-59.675000000000004
20
3.0249999999999999
42
-0.41421356237309664
10
-60.174999999999997
20
2.5249999999999999
10
-73.174999999999997
20
2.525000000000003
42
-0.41421356237309437
10
-73.674999999999997
20
3.0249999999999999
10
-73.674999999999997
20
16.024999999999999
42
-0.4142135623730937
10
-73.174999999999997
20
16.525000000000002
10
-60.174999999999997
20
16.525000000000002
42
-0.41421356237309764
10
-59.675000000000004
20
16.024999999999999
0
LWPOLYLINE
5
166
100
AcDbEntity
8
0
100
AcDbPolyline
90
8
70
1
43
0.0
10
-121.58750000000001
20
60.174999999999997
42
-0.41421356237310542
10
-122.08750000000002
20
59.675000000000004
10
-135.08749999999998
20
59.674999999999983
42
-0.41421356237307944
10
-135.58750000000001
20
60.174999999999997
10
-135.58750000000001
20
73.174999999999997
42
-0.41421356237310025
10
-135.08750000000001
20
73.674999999999997
10
-122.08750000000002
20
73.675000000000011
42
-0.41421356237309503
10
-121.58750000000001
20
73.174999999999997
0
LWPOLYLINE
5
167
100
AcDbEntity
8
0
100
AcDbPolyline
90
8
70
1
43
0.0
10
-29.994250000000001
20
61.174999999999997
42
-0.41421356237309764
10
-30.494250000000001
20
60.674999999999997
10
-36.244250000000008
20
60.675000000000011
42
-0.41421356237309764
10
-36.744250000000001
20
61.174999999999997
10
-36.744250000000008
20
74.175000000000011
42
-0.41421356237309764
10
-36.244250000000008
20
74.674999999999997
10
-30.494250000000001
20
74.674999999999997
42
-0.41421356237309764
10
-29.994250000000005
20
74.175000000000011
0
LWPOLYLINE
5
168
100
AcDbEntity
8
0
100
AcDbPolyline
90
8
70
1
43
0.0
10
-112.0625
20
41.125
42
-0.41421356237308982
10
-112.56250000000001
20
40.625
10
-125.5625
20
40.624999999999993
42
-0.41421356237307422
10
-126.06250000000001
20
41.125
10
-126.0625
20
54.125000000000007
42
-0.41421356237310025
10
-125.5625
20
54.625
10
-112.56250000000001
20
54.625000000000014
42
-0.41421356237309503
10
-112.0625
20
54.125000000000007
0
LWPOLYLINE
5
169
100
AcDbEntity
8
0
100
AcDbPolyline
90
8
70
1
43
0.0
10
-69.200000000000017
20
22.074999999999999
42
-0.41421356237309764
10
-69.700000000000003
20
21.575000000000003
10
-82.700000000000017
20
21.574999999999992
42
-0.41421356237307422
10
-83.200000000000017
20
22.074999999999999
10
-83.200000000000003
20
35.075000000000003
42
-0.41421356237310025
10
-82.700000000000017
20
35.575000000000003
10
-69.700000000000003
20
35.575000000000003
42
-0.41421356237309764
10
-69.200000000000003
20
35.075000000000003
0
LWPOLYLINE
5
170
100
AcDbEntity
8
0
100
AcDbPolyline
90
8
70
1
43
0.0
10
-231.125
20
3.0249999999999999
42
-0.41421356237304624
10
-231.625
20
2.5249999999999999
10
-244.62500000000003
20
2.5249999999999995
42
-0.41421356237313273
10
-245.12500000000003
20
3.0249999999999999
10
-245.12500000000006
20
16.024999999999999
42
-0.4142135623730781
10
-244.62500000000003
20
16.525000000000002
10
-231.625
20
16.524999999999984
42
-0.41421356237312362
10
-231.125
20
16.024999999999999
0
LWPOLYLINE
5
171
100
AcDbEntity
8
0
100
AcDbPolyline
90
8
70
1
43
0.0
10
-35.075000000000003
20
2.5250000000000004
42
-0.4142135623730957
10
-35.575000000000003
20
3.0249999999999999
10
-35.575000000000003
20
16.024999999999999
42
-0.41421356237309503
10
-35.075000000000003
20
16.525000000000002
10
-22.075000000000003
20
16.525000000000002
42
-0.41421356237309631
10
-21.575000000000003
20
16.024999999999999
10
-21.575000000000003
20
3.0249999999999999
42
-0.41421356237309537
10
-22.074999999999999
20
2.5249999999999999
0
LWPOLYLINE
5
172
100
AcDbEntity
8
0
100
AcDbPolyline
90
8
70
1
43
0.0
10
-221.59999999999999
20
22.074999999999999
42
-0.41421356237305079
10
-222.10000000000002
20
21.575000000000003
10
-235.10000000000002
20
21.574999999999996
42
-0.41421356237313406
10
-235.60000000000002
20
22.074999999999999
10
-235.60000000000005
20
35.075000000000003
42
-0.41421356237307683
10
-235.10000000000002
20
35.575000000000003
10
-222.10000000000002
20
35.575000000000017
42
-0.41421356237310025
10
-221.59999999999999
20
35.075000000000003
0
LWPOLYLINE
5
173
100
AcDbEntity
8
0
100
AcDbPolyline
90
8
70
1
43
0.0
10
-40.625
20
3.0249999999999999
42
-0.41421356237309404
10
-41.125
20
2.5249999999999999
10
-54.125000000000007
20
2.525000000000003
42
-0.41421356237309437
10
-54.625
20
3.0249999999999999
10
-54.625
20
16.024999999999999
42
-0.4142135623730937
10
-54.125000000000007
20
16.525000000000002
10
-41.125
20
16.524999999999999
42
-0.41421356237309503
10
-40.625
20
16.024999999999999
0
LWPOLYLINE
5
174
100
AcDbEntity
8
0
100
AcDbPolyline
90
8
70
1
43
0.0
10
-240.65000000000001
20
22.074999999999999
42
-0.41421356237305079
10
-241.15000000000003
20
21.575000000000003
10
-254.15000000000003
20
21.574999999999996
42
-0.41421356237313406
10
-254.65000000000003
20
22.074999999999999
10
-254.65000000000006
20
35.075000000000003
42
-0.41421356237307683
10
-254.15000000000003
20
35.575000000000003
10
-241.15000000000003
20
35.575000000000017
42
-0.41421356237310025
10
-240.65000000000001
20
35.075000000000003
0
LWPOLYLINE
5
175
100
AcDbEntity
8
0
100
AcDbPolyline
90
8
70
1
43
0.0
10
-188.26250000000002
20
41.125
42
-0.4142135623730222
10
-188.76249999999999
20
40.625
10
-201.76249999999999
20
40.625
42
-0.41421356237313145
10
-202.26249999999999
20
41.125
10
-202.26250000000005
20
54.125000000000007
42
-0.41421356237307422
10
-201.76249999999999
20
54.625
10
-188.76249999999999
20
54.624999999999986
42
-0.41421356237312101
10
-188.26249999999999
20
54.125000000000007
0
LWPOLYLINE
5
176
100
AcDbEntity
8
0
100
AcDbPolyline
90
8
70
1
43
0.0
10
-88.25
20
22.074999999999999
42
-0.41421356237310802
10
-88.75
20
21.575000000000003
10
-101.75
20
21.574999999999992
42
-0.41421356237309503
10
-102.25000000000001
20
22.074999999999999
10
-102.25000000000001
20
35.075000000000003
42
-0.41421356237310542
10
-101.75
20
35.575000000000003
10
-88.75
20
35.575000000000003
42
-0.41421356237309243
10
-88.25
20
35.075000000000003
0
LWPOLYLINE
5
177
100
AcDbEntity
8
0
100
AcDbPolyline
90
8
70
1
43
0.0
10
-49.3125
20
79.224999999999994
10
-49.3125
20
92.224999999999994
42
0.41421356237308982
10
-49.8125
20
92.725000000000009
10
-50.812500000000007
20
92.725000000000009
42
0.41421356237310025
10
-51.312500000000007
20
92.224999999999994
10
-51.312500000000007
20
79.224999999999994
42
0.41421356237310542
10
-50.812500000000007
20
78.724999999999994
10
-49.8125
20
78.724999999999994
42
0.41421356237309503
0
LWPOLYLINE
5
178
100
AcDbEntity
8
0
100
AcDbPolyline
90
8
70
1
43
0.0
10
-216.83750000000003
20
60.174999999999997
42
-0.4142135623730222
10
-217.33750000000001
20
59.675000000000004
10
-230.33750000000001
20
59.674999999999997
42
-0.41421356237313667
10
-230.83750000000003
20
60.174999999999997
10
-230.83750000000006
20
73.174999999999997
42
-0.41421356237307422
10
-230.33750000000001
20
73.674999999999997
10
-217.33750000000001
20
73.674999999999983
42
-0.41421356237312101
10
-216.83750000000001
20
73.174999999999997
0
LWPOLYLINE
5
179
100
AcDbEntity
8
0
100
AcDbPolyline
90
8
70
1
43
0.0
10
-31.100000000000001
20
22.074999999999999
42
-0.41421356237309503
10
-31.600000000000001
20
21.575000000000003
10
-44.600000000000001
20
21.575000000000003
42
-0.41421356237309503
10
-45.099999999999994
20
22.074999999999999
10
-45.099999999999994
20
35.075000000000003
42
-0.41421356237309503
10
-44.600000000000001
20
35.575000000000003
10
-31.600000000000001
20
35.575000000000003
42
-0.41421356237309503
10
-31.100000000000001
20
35.075000000000003
0
LWPOLYLINE
5
180
100
AcDbEntity
8
0
100
AcDbPolyline
90
8
70
1
43
0.0
10
-258.86250000000001
20
22.074999999999999
10
-258.86250000000001
20
35.075000000000003
42
0.41421356237310025
10
-259.36250000000001
20
35.575000000000003
10
-260.36250000000001
20
35.575000000000003
42
0.41421356237304563
10
-260.86250000000001
20
35.075000000000003
10
-260.86250000000001
20
22.074999999999999
42
0.41421356237310281
10
-260.36250000000001
20
21.575000000000003
10
-259.36250000000001
20
21.575000000000003
42
0.41421356237305079
0
LWPOLYLINE
5
181
100
AcDbEntity
8
0
100
AcDbPolyline
90
40
70
1
43
0.0
10
-1.025000000000007
20
-0.48192217601217391
10
-18.90367965644035
20
-0.48192217601217446
42
0.19891236737965814
10
-19.964339828220172
20
-0.92126200423235383
10
-23.11066017177982
20
-4.0675823477919995
42
-0.19891236737965812
10
-24.171320343559639
20
-4.5069221760121776
10
-90.128679656440369
20
-4.5069221760121785
42
-0.19891236737965845
10
-91.189339828220199
20
-4.0675823477919995
10
-94.335660171779836
20
-0.92126200423235427
42
0.19891236737965795
10
-95.396320343559665
20
-0.48192217601217419
10
-190.35367965644036
20
-0.48192217601217391
42
0.19891236737966089
10
-191.41433982822019
20
-0.92126200423236049
10
-194.56066017177983
20
-4.0675823477919693
42
-0.19891236737966872
10
-195.62132034355966
20
-4.5069221760121785
10
-261.57867965644039
20
-4.5069221760121803
42
-0.19891236737965859
10
-262.63933982822022
20
-4.0675823477919941
10
-265.78566017177985
20
-0.92126200423233207
42
0.19891236737965745
10
-266.84632034355968
20
-0.48192217601217391
10
-284.72500000000002
20
-0.48192217601218013
42
-0.41421356237309997
10
-286.22500000000002
20
1.0180778239878308
10
-286.22500000000002
20
94.218077823987798
42
-0.41421356237309853
10
-284.72500000000002
20
95.718077823987798
10
-266.84632034355968
20
95.718077823987798
42
0.1989123673796602
10
-265.78566017177985
20
96.157417652208011
10
-262.63933982822022
20
99.303737995767634
42
-0.19891236737965801
10
-261.57867965644039
20
99.743077823987818
10
-195.62132034355969
20
99.743077823987818
42
-0.19891236737965801
10
-194.56066017177986
20
99.303737995767634
10
-191.41433982822022
20
96.157417652207982
42
0.19891236737965801
10
-190.35367965644039
20
95.718077823987798
10
-95.39632034355968
20
95.718077823987798
42
0.1989123673796602
10
-94.335660171779836
20
96.157417652208011
10
-91.189339828220199
20
99.303737995767634
42
-0.19891236737967161
10
-90.128679656440397
20
99.743077823987804
10
-24.171320343559628
20
99.743077823987818
42
-0.19891236737967186
10
-23.110660171779816
20
99.303737995767634
10
-19.964339828220186
20
96.157417652207982
42
0.19891236737965831
10
-18.903679656440353
20
95.718077823987812
10
-1.0249999999999917
20
95.718077823987798
42
-0.41421356237309154
10
0.47499999999999432
20
94.218077823987798
10
0.4749999999999942
20
1.0180778239878299
42
-0.41421356237309598
0
ENDSEC
0
SECTION
2
OBJECTS
0
DICTIONARY
5
C
100
AcDbDictionary
3
ACAD_GROUP
350
D
3
ACAD_MLINESTYLE
350
17
0
DICTIONARY
5
D
100
AcDbDictionary
0
DICTIONARY
5
1A
330
C
100
AcDbDictionary
0
DICTIONARY
5
17
100
AcDbDictionary
0
ENDSEC
0
EOF
